#!OML:ASF X:\für Bonn\!DataBase\2005_08_10_Bjorn_Final\c3d\bjorn.ASF
:FULLY-SPECIFIED
:DEGREES
31
root 1.84877 19.2806 0.95603 325.983 -263.147 -392.476
lowerback 6.22154 2.22733 0.78536
upperback 11.8948 3.82116 -1.35092
thorax 9.2637 2.34596 -1.7471
lowerneck 0.521834 -6.48091 1.59036
upperneck 21.5253 -8.00593 -0.389156
head 6.37094 -3.44193 -0.765019
rclavicle 3.24019e-014 -3.81667e-014
rhumerus -12.4789 -0.890289 -87.1238
rradius 41.8531
rwrist -5.90706
rhand -19.1238 15.0902
rfingers 7.12502
rthumb 7.18567 -14.7679
lclavicle 3.24019e-014 -3.81667e-014
lhumerus -26.4697 -4.48854 89.083
lradius 26.5919
lwrist -23.8944
lhand -12.3859 -6.67685
lfingers 7.12502
lthumb 13.6851 22.8532
rfemur -17.0922 -10.9333 15.9812
rtibia 32.5006
rfoot -7.38626 13.7123
rtoes 3.73672
lfemur -22.7186 11.5272 -22.2001
ltibia 41.5769
lfoot -10.5238 -1.60094
ltoes -17.5042
32
root 1.87815 19.2662 0.967215 325.412 -263.318 -393.067
lowerback 6.71823 2.3239 0.704955
upperback 12.0519 3.98351 -1.40847
thorax 9.16294 2.43706 -1.78131
lowerneck 0.68373 -6.51634 1.60574
upperneck 21.1373 -8.0806 -0.28144
head 6.22284 -3.48417 -0.724663
rclavicle 3.16068e-014 -2.54444e-014
rhumerus -11.8825 -0.257084 -86.9836
rradius 42.1515
rwrist -5.99564
rhand -19.4653 15.3741
rfingers 7.12502
rthumb 6.85601 -14.4949
lclavicle 3.16068e-014 -2.54444e-014
lhumerus -26.0991 -4.65776 89.1262
lradius 26.7712
lwrist -23.5514
lhand -13.4525 -6.94046
lfingers 7.12502
lthumb 12.657 22.656
rfemur -17.225 -10.8216 16.068
rtibia 32.8506
rfoot -7.61558 13.8723
rtoes 3.92825
lfemur -23.1411 11.7181 -22.182
ltibia 41.1208
lfoot -10.5534 -1.62529
ltoes -17.4768
33
root 1.90175 19.2496 0.980092 325.039 -263.481 -393.435
lowerback 7.29449 2.40429 0.656274
upperback 12.211 4.12711 -1.48481
thorax 9.02321 2.52436 -1.85963
lowerneck 0.77337 -6.55347 1.67518
upperneck 20.7763 -8.16074 -0.190574
head 6.09317 -3.52623 -0.70161
rclavicle -5.24792e-014 4.41302e-014
rhumerus -11.2423 0.332023 -86.875
rradius 42.3859
rwrist -6.09036
rhand -19.7504 15.5331
rfingers 7.12502
rthumb 6.58073 -14.3446
lclavicle -5.24792e-014 4.41302e-014
lhumerus -25.7218 -5.05771 89.1627
lradius 27.0155
lwrist -22.9789
lhand -14.5421 -7.18425
lfingers 7.12502
lthumb 11.6064 22.4743
rfemur -17.3523 -10.6681 16.175
rtibia 33.2202
rfoot -7.83345 13.9894
rtoes 4.26057
lfemur -23.5183 11.8819 -22.1178
ltibia 40.7939
lfoot -10.4949 -1.59294
ltoes -17.543
34
root 1.92169 19.2316 0.992989 324.606 -263.556 -393.855
lowerback 7.90387 2.45939 0.604961
upperback 12.3628 4.24078 -1.61439
thorax 8.8617 2.60076 -1.99727
lowerneck 0.87569 -6.59299 1.83905
upperneck 20.4176 -8.24393 -0.114758
head 5.95789 -3.56398 -0.697929
rclavicle 4.27387e-015 7.95139e-016
rhumerus -10.6113 0.870685 -86.8149
rradius 42.5674
rwrist -6.20994
rhand -19.9976 15.7184
rfingers 7.12502
rthumb 6.34215 -14.1666
lclavicle 4.27387e-015 7.95139e-016
lhumerus -25.3585 -5.59537 89.1573
lradius 27.3017
lwrist -22.3172
lhand -15.6026 -7.3953
lfingers 7.12502
lthumb 10.5836 22.3182
rfemur -17.4958 -10.5809 16.2238
rtibia 33.6238
rfoot -8.08938 14.0866
rtoes 4.42398
lfemur -23.8567 11.9429 -22.0998
ltibia 40.5838
lfoot -10.3891 -1.40204
ltoes -18.0196
35
root 1.94069 19.2119 1.00612 324.237 -263.651 -394.211
lowerback 8.50636 2.51046 0.564914
upperback 12.5173 4.34777 -1.7293
thorax 8.70874 2.67432 -2.12676
lowerneck 0.938217 -6.62821 1.97016
upperneck 20.0796 -8.3222 -0.0290853
head 5.83822 -3.60109 -0.687418
rclavicle -2.62396e-014 1.98785e-015
rhumerus -9.95159 1.45204 -86.7125
rradius 42.7248
rwrist -6.38598
rhand -20.2741 15.9044
rfingers 7.12502
rthumb 6.07517 -13.9885
lclavicle -2.62396e-014 1.98785e-015
lhumerus -24.95 -6.11941 89.1488
lradius 27.5895
lwrist -21.6432
lhand -16.631 -7.58205
lfingers 7.12502
lthumb 9.59138 22.1796
rfemur -17.6591 -10.4859 16.2931
rtibia 34.0614
rfoot -8.3316 14.1941
rtoes 4.66509
lfemur -24.1662 12.0196 -22.0575
ltibia 40.5002
lfoot -10.2671 -1.1455
ltoes -18.6991
36
root 1.95817 19.1898 1.01921 323.786 -263.754 -394.667
lowerback 9.08607 2.55422 0.540463
upperback 12.6722 4.44679 -1.86791
thorax 8.57479 2.74711 -2.29009
lowerneck 0.98104 -6.64758 2.12276
upperneck 19.7427 -8.38451 0.081629
head 5.72295 -3.6279 -0.672554
rclavicle 5.96354e-014 -4.67144e-014
rhumerus -9.23916 1.97091 -86.6416
rradius 42.812
rwrist -6.55716
rhand -20.5737 16.1802
rfingers 7.12502
rthumb 5.78599 -13.7208
lclavicle 5.96354e-014 -4.67144e-014
lhumerus -24.5542 -6.68774 89.0979
lradius 27.9686
lwrist -20.9052
lhand -17.6046 -7.70787
lfingers 7.12502
lthumb 8.65196 22.0948
rfemur -17.8768 -10.3633 16.3597
rtibia 34.5506
rfoot -8.59256 14.3061
rtoes 5.04476
lfemur -24.4742 12.0805 -22.0071
ltibia 40.525
lfoot -10.1216 -0.827014
ltoes -19.2299
